<mxfile host="app.diagrams.net" modified="2023-12-30T15:43:09.471Z" agent="Mozilla/5.0 (Windows NT 10.0; Win64; x64) AppleWebKit/537.36 (KHTML, like Gecko) Chrome/120.0.0.0 Safari/537.36 Edg/120.0.0.0" etag="2OB7C7myla9oB0RYZOaH" version="22.1.16" type="device">
  <diagram name="第 1 页" id="jSrxMNdjPY7mbC13lUb1">
    <mxGraphModel dx="466" dy="613" grid="1" gridSize="10" guides="1" tooltips="1" connect="1" arrows="1" fold="1" page="1" pageScale="1" pageWidth="827" pageHeight="1169" math="0" shadow="0">
      <root>
        <mxCell id="0" />
        <mxCell id="1" parent="0" />
        <mxCell id="C8zNJD59eOychpIgwqWf-9" style="edgeStyle=none;curved=1;rounded=0;orthogonalLoop=1;jettySize=auto;html=1;entryX=0.5;entryY=0;entryDx=0;entryDy=0;fontSize=12;startSize=8;endSize=8;" edge="1" parent="1" source="C8zNJD59eOychpIgwqWf-1" target="C8zNJD59eOychpIgwqWf-3">
          <mxGeometry relative="1" as="geometry" />
        </mxCell>
        <mxCell id="C8zNJD59eOychpIgwqWf-1" value="用户登录注册" style="rounded=0;whiteSpace=wrap;html=1;fontSize=16;" vertex="1" parent="1">
          <mxGeometry x="60" y="90" width="120" height="60" as="geometry" />
        </mxCell>
        <mxCell id="C8zNJD59eOychpIgwqWf-2" value="用户数据" style="shape=cylinder3;whiteSpace=wrap;html=1;boundedLbl=1;backgroundOutline=1;size=15;fontSize=16;" vertex="1" parent="1">
          <mxGeometry x="290" y="70" width="60" height="100" as="geometry" />
        </mxCell>
        <mxCell id="C8zNJD59eOychpIgwqWf-19" value="" style="edgeStyle=none;curved=1;rounded=0;orthogonalLoop=1;jettySize=auto;html=1;fontSize=12;startSize=8;endSize=8;" edge="1" parent="1" source="C8zNJD59eOychpIgwqWf-3" target="C8zNJD59eOychpIgwqWf-5">
          <mxGeometry relative="1" as="geometry" />
        </mxCell>
        <mxCell id="C8zNJD59eOychpIgwqWf-3" value="用户类型识别程序" style="rounded=0;whiteSpace=wrap;html=1;fontSize=16;" vertex="1" parent="1">
          <mxGeometry x="60" y="190" width="120" height="60" as="geometry" />
        </mxCell>
        <mxCell id="C8zNJD59eOychpIgwqWf-21" style="edgeStyle=none;curved=1;rounded=0;orthogonalLoop=1;jettySize=auto;html=1;exitX=1;exitY=0.5;exitDx=0;exitDy=0;fontSize=12;startSize=8;endSize=8;" edge="1" parent="1" source="C8zNJD59eOychpIgwqWf-4" target="C8zNJD59eOychpIgwqWf-12">
          <mxGeometry relative="1" as="geometry" />
        </mxCell>
        <mxCell id="C8zNJD59eOychpIgwqWf-22" style="edgeStyle=none;curved=1;rounded=0;orthogonalLoop=1;jettySize=auto;html=1;exitX=0.5;exitY=1;exitDx=0;exitDy=0;fontSize=12;startSize=8;endSize=8;" edge="1" parent="1" source="C8zNJD59eOychpIgwqWf-4" target="C8zNJD59eOychpIgwqWf-7">
          <mxGeometry relative="1" as="geometry" />
        </mxCell>
        <mxCell id="C8zNJD59eOychpIgwqWf-4" value="人脸识别签到程序" style="rounded=0;whiteSpace=wrap;html=1;fontSize=16;" vertex="1" parent="1">
          <mxGeometry x="60" y="410" width="120" height="60" as="geometry" />
        </mxCell>
        <mxCell id="C8zNJD59eOychpIgwqWf-20" style="edgeStyle=none;curved=1;rounded=0;orthogonalLoop=1;jettySize=auto;html=1;exitX=0.5;exitY=1;exitDx=0;exitDy=0;entryX=0.5;entryY=0;entryDx=0;entryDy=0;fontSize=12;startSize=8;endSize=8;" edge="1" parent="1" source="C8zNJD59eOychpIgwqWf-5" target="C8zNJD59eOychpIgwqWf-4">
          <mxGeometry relative="1" as="geometry" />
        </mxCell>
        <mxCell id="C8zNJD59eOychpIgwqWf-5" value="功能选择程序" style="rounded=0;whiteSpace=wrap;html=1;fontSize=16;" vertex="1" parent="1">
          <mxGeometry x="60" y="300" width="120" height="70" as="geometry" />
        </mxCell>
        <mxCell id="C8zNJD59eOychpIgwqWf-7" value="签到信息生成" style="shape=document;whiteSpace=wrap;html=1;boundedLbl=1;fontSize=16;" vertex="1" parent="1">
          <mxGeometry x="60" y="530" width="120" height="80" as="geometry" />
        </mxCell>
        <mxCell id="C8zNJD59eOychpIgwqWf-8" style="edgeStyle=none;curved=1;rounded=0;orthogonalLoop=1;jettySize=auto;html=1;exitX=1;exitY=0.5;exitDx=0;exitDy=0;entryX=0;entryY=0.5;entryDx=0;entryDy=0;entryPerimeter=0;fontSize=12;startSize=8;endSize=8;" edge="1" parent="1" source="C8zNJD59eOychpIgwqWf-1" target="C8zNJD59eOychpIgwqWf-2">
          <mxGeometry relative="1" as="geometry" />
        </mxCell>
        <mxCell id="C8zNJD59eOychpIgwqWf-12" value="签到数据" style="shape=cylinder3;whiteSpace=wrap;html=1;boundedLbl=1;backgroundOutline=1;size=15;fontSize=16;" vertex="1" parent="1">
          <mxGeometry x="290" y="390" width="60" height="100" as="geometry" />
        </mxCell>
      </root>
    </mxGraphModel>
  </diagram>
</mxfile>
